<?xml version="1.0" encoding="UTF-8" standalone="no"?>
<!-- Created with Inkscape (http://www.inkscape.org/) -->

<svg
   width="34.156258mm"
   height="25.02655mm"
   viewBox="0 0 34.156258 25.02655"
   version="1.1"
   id="svg5"
   xml:space="preserve"
   inkscape:version="1.2.2 (732a01da63, 2022-12-09)"
   sodipodi:docname="logo branco.svg"
   xmlns:inkscape="http://www.inkscape.org/namespaces/inkscape"
   xmlns:sodipodi="http://sodipodi.sourceforge.net/DTD/sodipodi-0.dtd"
   xmlns="http://www.w3.org/2000/svg"
   xmlns:svg="http://www.w3.org/2000/svg"><sodipodi:namedview
     id="namedview7"
     pagecolor="#505050"
     bordercolor="#eeeeee"
     borderopacity="1"
     inkscape:showpageshadow="0"
     inkscape:pageopacity="0"
     inkscape:pagecheckerboard="0"
     inkscape:deskcolor="#505050"
     inkscape:document-units="mm"
     showgrid="false"
     inkscape:zoom="2.56"
     inkscape:cx="79.492188"
     inkscape:cy="76.953125"
     inkscape:window-width="1600"
     inkscape:window-height="847"
     inkscape:window-x="-8"
     inkscape:window-y="-8"
     inkscape:window-maximized="1"
     inkscape:current-layer="g487" /><defs
     id="defs2" /><g
     inkscape:label="Camada 1"
     inkscape:groupmode="layer"
     id="layer1"
     transform="translate(-40.133293,448.68008)"><g
       id="g21048"><g
         id="g487"
         transform="matrix(0.46848466,0,0,0.46848466,96.754379,-453.34332)"><ellipse
           style="fill:none;fill-rule:evenodd;stroke:#f4f8fd;stroke-width:0.833;stroke-linecap:round;stroke-linejoin:round;stroke-dasharray:none;stroke-opacity:1;paint-order:stroke fill markers;stop-color:#000000"
           id="ellipse483"
           cx="-94.017632"
           cy="36.664005"
           rx="26.425932"
           ry="26.293602" /><path
           style="fill:#f4f8fd;fill-opacity:1;stroke-width:0.264583"
           d="m -90.991862,20.090247 c -0.05964,0.0037 -0.117807,0.01543 -0.170532,0.03566 -0.24774,0.09507 -0.538479,1.02044 -0.821139,2.614828 -0.240608,1.357216 -0.630357,3.361033 -0.866097,4.452441 -0.235748,1.091408 -0.702474,3.055939 -1.037662,4.365625 -0.33519,1.309678 -0.741478,2.857504 -0.902788,3.439584 -0.16131,0.582078 -0.660231,2.129905 -1.108459,3.439583 -0.44823,1.309688 -1.259986,3.473739 -1.804024,4.809525 -0.54404,1.335798 -1.270384,2.93798 -1.614372,3.55999 -0.46738,0.845128 -1.060425,1.375709 -2.345595,2.100647 -0.94588,0.533558 -2.04721,1.269649 -2.44739,1.635559 -0.42928,0.39251 -0.72761,0.941743 -0.72761,1.339453 0,0.45109 0.18293,0.732301 0.55242,0.849561 0.3037,0.0966 0.95622,0.09934 1.45004,0.0067 0.65028,-0.122 1.20908,-0.542664 2.02727,-1.526522 0.62131,-0.74712 1.438203,-1.685438 1.815393,-2.084628 0.377188,-0.399178 1.210635,-0.861337 1.852083,-1.027327 0.641458,-0.16598 1.389966,-0.367101 1.663464,-0.447001 0.43681,-0.12759 0.477867,-0.03747 0.335897,0.743107 -0.08888,0.488718 -0.237195,1.487493 -0.329695,2.219503 -0.1345,1.064088 -0.07931,1.404711 0.275435,1.699121 0.31581,0.262098 0.624526,0.29818 1.070736,0.12454 0.344788,-0.13417 1.650495,-1.523097 2.901631,-3.086633 1.251128,-1.563548 2.557176,-3.028212 2.902666,-3.254582 0.372238,-0.2439 2.49817,-0.669578 5.218286,-1.044898 2.524654,-0.348348 6.010187,-0.729161 7.745263,-0.846459 2.129666,-0.14399 3.190067,-0.320885 3.263367,-0.544153 0.08149,-0.24833 -0.493063,-0.330729 -2.306319,-0.330729 -1.328098,0 -4.091071,0.184867 -6.139677,0.410827 -2.048606,0.22597 -4.275554,0.513926 -4.949052,0.639754 -0.673508,0.12582 -1.258796,0.194346 -1.300696,0.152446 -0.04188,-0.04189 0.731617,-0.851222 1.719275,-1.79834 0.987648,-0.947118 2.807787,-2.591029 4.044715,-3.653007 1.236926,-1.061988 3.558647,-2.899977 5.159375,-4.084505 1.600726,-1.184518 3.87474,-2.77056 5.053438,-3.52485 1.178698,-0.754288 0,0 2.420007,-1.371492 l 0.389642,-0.276473 1.095541,-0.639238 c 0.602538,-0.351748 2.099611,-1.068549 3.326929,-1.592667 1.227316,-0.52412 3.173427,-1.197206 4.324283,-1.495516 1.601938,-0.41522 2.701061,-0.521169 4.689637,-0.452169 2.435724,0.08456 2.659767,0.140281 3.590995,0.894519 0.558368,0.45225 1.146244,1.246875 1.34307,1.815393 0.271434,0.784008 0.284427,1.287045 0.05736,2.238623 -0.161063,0.67498 -0.695229,1.975238 -1.187007,2.889746 -0.49179,0.914518 -0.894519,1.77772 -0.894519,1.91823 0,0.140508 0.239934,0.255798 0.532784,0.255798 0.353748,0 0.833286,-0.470669 1.42937,-1.402499 0.493462,-0.771408 1.087483,-1.857756 1.319816,-2.413806 0.232332,-0.556058 0.422196,-1.517522 0.422196,-2.13682 0,-0.6193 -0.173056,-1.539872 -0.384472,-2.04587 -0.211418,-0.50599 -0.807116,-1.291325 -1.323951,-1.745113 -0.516834,-0.45379 -1.619448,-1.022933 -2.450496,-1.264523 -1.139288,-0.331178 -2.131736,-0.404596 -4.033862,-0.299206 -1.387488,0.07687 -3.177684,0.341873 -3.978052,0.589111 -0.800358,0.24725 -2.110059,0.696629 -2.910417,0.998389 -0.800368,0.30175 -2.26371,0.949359 -3.251998,1.439189 -0.521455,0.25845 -1.020896,0.470173 -1.400431,0.60203 -0.13406,0.0679 -0.267722,0.135566 -0.395325,0.216008 -0.151189,0.08743 -0.295658,0.189397 -0.460953,0.249597 -0.273856,0.121095 -0.144128,0.06474 -0.496094,0.271818 -0.26249,0.18393 -2.263426,1.503264 -4.44624,2.93212 -2.182806,1.428858 -5.211805,3.600161 -6.731373,4.825029 -1.519576,1.224868 -4.268201,3.672725 -6.107637,5.439461 -3.120394,2.997074 -3.444646,3.234674 -4.845182,3.548104 -0.8256,0.18429 -1.572114,0.264984 -1.658814,0.178284 -0.0867,-0.08671 0.207901,-1.861893 0.654741,-3.944979 0.446838,-2.083076 0.943398,-4.561269 1.103808,-5.507157 0.16041,-0.94588 0.440861,-2.874184 0.622701,-4.28501 0.19387,-1.504218 0.235262,-2.735303 0.100252,-2.976563 -0.126638,-0.22628 -0.330692,-0.411344 -0.453202,-0.411344 -0.12251,0 -0.302159,0.317048 -0.399459,0.704866 -0.09733,0.38782 -0.46321,2.382125 -0.81287,4.431771 -0.34966,2.049656 -1.064474,5.691444 -1.588534,8.09253 -0.524068,2.401094 -1.034597,4.437723 -1.134297,4.525821 -0.09973,0.08811 -0.819358,0.362264 -1.599386,0.609782 -0.780028,0.24752 -1.46292,0.4057 -1.51722,0.3514 -0.05427,-0.05427 0.41681,-1.281449 1.046448,-2.726965 0.629638,-1.445518 1.506243,-3.699319 1.948201,-5.008997 0.44195,-1.309686 1.055525,-3.214685 1.363225,-4.233333 0.307688,-1.018638 0.87098,-3.102242 1.25212,-4.630208 0.381128,-1.527958 0.860344,-3.671094 1.064534,-4.7625 0.2042,-1.091398 0.499541,-2.741087 0.656291,-3.665927 0.1951,-1.150906 0.198968,-1.767319 0.01292,-1.953369 -0.112132,-0.112117 -0.305818,-0.171954 -0.484725,-0.160713 z m -0.289388,26.460917 c 0.03606,1.39e-4 0.06723,0.0027 0.0925,0.0083 0.24179,0.05297 -0.09512,0.624017 -0.984436,1.668115 -0.743688,0.873118 -1.440446,1.621565 -1.548226,1.663465 -0.10774,0.04189 -0.07439,-0.537272 0.0739,-1.28726 0.23742,-1.200798 0.378172,-1.40893 1.18029,-1.74408 0.438356,-0.183172 0.933552,-0.309484 1.185974,-0.308508 z m -10.17612,3.541902 h 5.1e-4 c 0.0381,0.005 0.0589,0.02263 0.0589,0.05426 0,0.12653 -0.33392,0.549999 -0.74207,0.941027 -0.40814,0.39103 -0.88523,0.711068 -1.0604,0.711068 h -5.2e-4 c -0.24543,0 -0.24703,-0.113721 -0.007,-0.498161 0.17117,-0.274098 0.64826,-0.697579 1.0604,-0.941027 0.30911,-0.182565 0.57624,-0.282212 0.6904,-0.267168 z"
           id="path485"
           sodipodi:nodetypes="sssssssssssscsssssscsssssscsssssssscccsccssssssssssscscssccccssscsssssscsssssssssscsssccssssccccsssscscc" /></g></g></g></svg>
